<?xml version="1.0" encoding="utf-8"?>
<!-- Generator: Adobe Illustrator 25.0.1, SVG Export Plug-In . SVG Version: 6.00 Build 0)  -->
<svg version="1.1" id="Layer_1" xmlns="http://www.w3.org/2000/svg" xmlns:xlink="http://www.w3.org/1999/xlink" x="0px" y="0px"
	 viewBox="0 0 21 30" style="enable-background:new 0 0 21 30;" xml:space="preserve">
<style type="text/css">
	.st0{fill:#FFFFFF;}
</style>
<path id="Icon_material-location-on" class="st0" d="M10.5,0C4.7,0,0,4.7,0,10.5c0,0,0,0,0,0C0,18.4,10.5,30,10.5,30
	S21,18.4,21,10.5C21,4.7,16.3,0,10.5,0C10.5,0,10.5,0,10.5,0z M10.5,14.2c-2.1,0-3.8-1.7-3.8-3.8s1.7-3.8,3.8-3.8s3.8,1.7,3.8,3.8
	C14.2,12.6,12.6,14.2,10.5,14.2z"/>
</svg>
