<?xml version="1.0" encoding="utf-8"?>
<!-- Generator: Adobe Illustrator 25.0.1, SVG Export Plug-In . SVG Version: 6.00 Build 0)  -->
<svg version="1.1" id="Layer_1" xmlns="http://www.w3.org/2000/svg" xmlns:xlink="http://www.w3.org/1999/xlink" x="0px" y="0px"
	 viewBox="0 0 16 16.5" style="enable-background:new 0 0 16 16.5;" xml:space="preserve">
<style type="text/css">
	.st0{fill:#FFFFFF;}
</style>
<g id="Phone" transform="translate(0 0)">
	<path id="Path_110" class="st0" d="M9.3,11.9l1.7-1.6c0.1-0.1,0.3-0.2,0.4-0.1l0.3,0.1l4,1.9c0.3,0.1,0.3,0.3,0.3,0.6
		c0,1-0.4,1.9-1.1,2.6c-0.8,0.8-1.9,1.2-3,1.1c-1.4,0-2.8-0.4-4-1c-1.5-0.8-2.8-1.7-4-2.9c-0.8-1-1.5-2-2.1-3.1
		c-0.6-1-1-2.1-1.4-3.1C0,5.4,0,4.5,0,3.6c0.1-0.8,0.4-1.6,1-2.1c0.8-0.6,1.7-1,2.7-1c0.2,0,0.4,0.1,0.6,0.3l2.1,4
		C6.4,4.9,6.5,5,6.6,5c0,0.2,0,0.3-0.1,0.4L4.6,7.2c-0.1,0.2-0.1,0.5,0,0.7c0.5,0.8,1.1,1.6,1.7,2.3C7,10.9,7.7,11.5,8.6,12
		C8.9,12.2,9.1,12.2,9.3,11.9z"/>
</g>
</svg>
